<svg width="32" height="32" viewBox="0 0 32 32" fill="none" xmlns="http://www.w3.org/2000/svg">
<path d="M24.3933 9.48669C24.9124 8.96754 24.9124 8.12583 24.3933 7.60669V7.60669C23.8741 7.08754 23.0324 7.08754 22.5133 7.60669L17.4142 12.7058C16.6331 13.4869 15.3668 13.4869 14.5857 12.7058L9.48662 7.60669C8.96748 7.08754 8.12577 7.08754 7.60663 7.60669V7.60669C7.08748 8.12583 7.08748 8.96754 7.60663 9.48669L12.7057 14.5858C13.4868 15.3669 13.4868 16.6332 12.7057 17.4142L7.60663 22.5134C7.08748 23.0325 7.08748 23.8742 7.60663 24.3934V24.3934C8.12577 24.9125 8.96748 24.9125 9.48663 24.3934L14.5857 19.2942C15.3668 18.5132 16.6331 18.5132 17.4142 19.2942L22.5133 24.3934C23.0324 24.9125 23.8741 24.9125 24.3933 24.3934V24.3934C24.9124 23.8742 24.9124 23.0325 24.3933 22.5134L19.2942 17.4142C18.5131 16.6332 18.5131 15.3669 19.2942 14.5858L24.3933 9.48669Z" fill="currentColor"/>
</svg>
