<svg width="20" height="20" viewBox="0 0 20 20" fill="none" xmlns="http://www.w3.org/2000/svg">
<path d="M0.403755 19.6004L1.70167 14.8311C0.846447 13.365 0.397127 11.6977 0.399915 10.0004C0.399915 4.69831 4.69783 0.400391 9.99991 0.400391C15.302 0.400391 19.5999 4.69831 19.5999 10.0004C19.5999 15.3025 15.302 19.6004 9.99991 19.6004C8.30338 19.6031 6.6367 19.1541 5.17111 18.2996L0.403755 19.6004ZM6.53527 5.49607C6.4113 5.50376 6.29016 5.53642 6.17911 5.59207C6.07497 5.65104 5.97991 5.72476 5.89687 5.81095C5.78167 5.91943 5.71639 6.01351 5.64631 6.10471C5.29151 6.56646 5.10066 7.13327 5.10391 7.71559C5.10583 8.18599 5.22871 8.6439 5.42071 9.07206C5.81335 9.93798 6.45943 10.8548 7.31287 11.7044C7.51831 11.9089 7.71895 12.1143 7.93495 12.3053C8.9942 13.2379 10.2565 13.9105 11.6213 14.2695L12.1676 14.353C12.3452 14.3626 12.5228 14.3492 12.7013 14.3405C12.9809 14.3261 13.2539 14.2504 13.501 14.1188C13.6267 14.054 13.7494 13.9836 13.8687 13.9076C13.8687 13.9076 13.91 13.8807 13.9887 13.8212C14.1183 13.7252 14.198 13.657 14.3055 13.5447C14.3852 13.4621 14.4543 13.3652 14.5071 13.2548C14.582 13.0983 14.6569 12.7997 14.6876 12.5511C14.7106 12.361 14.7039 12.2573 14.701 12.193C14.6972 12.0903 14.6117 11.9837 14.5186 11.9386L13.9599 11.6881C13.9599 11.6881 13.1247 11.3242 12.6149 11.0919C12.5612 11.0685 12.5036 11.0551 12.445 11.0525C12.3793 11.0458 12.313 11.0532 12.2504 11.0742C12.1878 11.0952 12.1304 11.1294 12.0821 11.1745V11.1725C12.0773 11.1725 12.013 11.2273 11.3189 12.0682C11.2791 12.1218 11.2242 12.1622 11.1613 12.1844C11.0984 12.2067 11.0303 12.2097 10.9657 12.193C10.9031 12.1763 10.8418 12.1551 10.7823 12.1297C10.6633 12.0797 10.622 12.0605 10.5404 12.025L10.5356 12.0231C9.98638 11.7833 9.47788 11.4594 9.02839 11.0631C8.90743 10.9575 8.79511 10.8423 8.67991 10.7309C8.30222 10.3693 7.97308 9.96008 7.70071 9.51366L7.64407 9.42246C7.60339 9.36118 7.5705 9.29507 7.54615 9.22566C7.50967 9.08454 7.60471 8.97126 7.60471 8.97126C7.60471 8.97126 7.83799 8.7159 7.94647 8.57766C8.0368 8.46277 8.12107 8.34325 8.19895 8.21959C8.31223 8.03719 8.34775 7.84999 8.28823 7.70503C8.01943 7.04839 7.74103 6.39463 7.45495 5.74567C7.39831 5.61703 7.23031 5.52487 7.07767 5.50663C7.02583 5.50087 6.97399 5.49511 6.92215 5.49127C6.79323 5.48486 6.66404 5.48614 6.53527 5.49511V5.49607Z" fill="currentColor"/>
</svg>
