<svg width="26" height="9" viewBox="0 0 26 9" fill="none" xmlns="http://www.w3.org/2000/svg">
<path d="M6.01395 4.36C6.41395 4.48667 6.72728 4.7 6.95395 5C7.18061 5.29333 7.29395 5.65667 7.29395 6.09C7.29395 6.70333 7.05395 7.17667 6.57395 7.51C6.10061 7.83667 5.40728 8 4.49395 8H0.873945V1H4.29395C5.14728 1 5.80061 1.16333 6.25395 1.49C6.71395 1.81667 6.94395 2.26 6.94395 2.82C6.94395 3.16 6.86061 3.46333 6.69395 3.73C6.53395 3.99667 6.30728 4.20667 6.01395 4.36ZM2.48395 2.22V3.87H4.09395C4.49395 3.87 4.79728 3.8 5.00395 3.66C5.21061 3.52 5.31395 3.31333 5.31395 3.04C5.31395 2.76667 5.21061 2.56333 5.00395 2.43C4.79728 2.29 4.49395 2.22 4.09395 2.22H2.48395ZM4.37395 6.78C4.80061 6.78 5.12061 6.71 5.33395 6.57C5.55395 6.43 5.66395 6.21333 5.66395 5.92C5.66395 5.34 5.23395 5.05 4.37395 5.05H2.48395V6.78H4.37395ZM9.90043 3.33C10.0871 3.07 10.3371 2.87333 10.6504 2.74C10.9704 2.60667 11.3371 2.54 11.7504 2.54V3.98C11.5771 3.96667 11.4604 3.96 11.4004 3.96C10.9538 3.96 10.6038 4.08667 10.3504 4.34C10.0971 4.58667 9.97043 4.96 9.97043 5.46V8H8.41043V2.62H9.90043V3.33ZM12.678 2.62H14.238V8H12.678V2.62ZM13.458 1.87C13.1713 1.87 12.938 1.78667 12.758 1.62C12.578 1.45333 12.488 1.24667 12.488 1C12.488 0.753333 12.578 0.546666 12.758 0.38C12.938 0.213333 13.1713 0.129999 13.458 0.129999C13.7447 0.129999 13.978 0.21 14.158 0.37C14.338 0.53 14.428 0.73 14.428 0.97C14.428 1.23 14.338 1.44667 14.158 1.62C13.978 1.78667 13.7447 1.87 13.458 1.87ZM18.3958 6.83C18.6758 6.83 18.9225 6.79 19.1358 6.71C19.3558 6.62333 19.5592 6.49 19.7458 6.31L20.5758 7.21C20.0692 7.79 19.3292 8.08 18.3558 8.08C17.7492 8.08 17.2125 7.96333 16.7458 7.73C16.2792 7.49 15.9192 7.16 15.6658 6.74C15.4125 6.32 15.2858 5.84333 15.2858 5.31C15.2858 4.78333 15.4092 4.31 15.6558 3.89C15.9092 3.46333 16.2525 3.13333 16.6858 2.9C17.1258 2.66 17.6192 2.54 18.1658 2.54C18.6792 2.54 19.1458 2.65 19.5658 2.87C19.9858 3.08333 20.3192 3.39667 20.5658 3.81C20.8192 4.21667 20.9458 4.7 20.9458 5.26L16.9658 6.03C17.0792 6.29667 17.2558 6.49667 17.4958 6.63C17.7425 6.76333 18.0425 6.83 18.3958 6.83ZM18.1658 3.72C17.7725 3.72 17.4525 3.84667 17.2058 4.1C16.9592 4.35333 16.8292 4.70333 16.8158 5.15L19.4358 4.64C19.3625 4.36 19.2125 4.13667 18.9858 3.97C18.7592 3.80333 18.4858 3.72 18.1658 3.72ZM23.5144 2.74H24.8944V3.94H23.5544V8H21.9944V2.5C21.9944 1.88667 22.1744 1.4 22.5344 1.04C22.9011 0.679999 23.4144 0.499999 24.0744 0.499999C24.3077 0.499999 24.5277 0.526666 24.7344 0.58C24.9477 0.626666 25.1244 0.696667 25.2644 0.79L24.8544 1.92C24.6744 1.79333 24.4644 1.73 24.2244 1.73C23.7511 1.73 23.5144 1.99 23.5144 2.51V2.74Z" fill="#currentColor"/>
</svg>
