<svg width="20" height="18" viewBox="0 0 20 18" fill="none" xmlns="http://www.w3.org/2000/svg">
<path d="M18.9317 0.831299C18.6077 0.556547 18.0988 0.517235 17.5726 0.728483H17.5717C17.0183 0.950531 1.90699 7.43226 1.29182 7.69707C1.17993 7.73595 0.202748 8.10056 0.303404 8.91272C0.39326 9.64496 1.17864 9.94823 1.27454 9.98322L5.11632 11.2987C5.3712 12.1471 6.3108 15.2774 6.51859 15.9461C6.64819 16.363 6.85944 16.9108 7.22966 17.0235C7.55452 17.1488 7.87766 17.0343 8.08675 16.8702L10.4355 14.6916L14.2272 17.6486L14.3175 17.7026C14.575 17.8167 14.8216 17.8737 15.0571 17.8737C15.2389 17.8737 15.4135 17.8396 15.5802 17.7713C16.1483 17.538 16.3755 16.9967 16.3993 16.9354L19.2315 2.21413C19.4043 1.42789 19.1641 1.02786 18.9317 0.831299ZM8.50449 11.8248L7.20849 15.2808L5.91249 10.9608L15.8485 3.61683L8.50449 11.8248Z" fill="currentColor"/>
</svg>
