<svg width="18" height="14" viewBox="0 0 18 14" fill="none" xmlns="http://www.w3.org/2000/svg">
<path fill-rule="evenodd" clip-rule="evenodd" d="M1.26501 1.31249C1.26501 0.684264 1.75974 0.174988 2.37001 0.174988H15.63C16.2403 0.174988 16.735 0.684264 16.735 1.31249C16.735 1.94071 16.2403 2.44999 15.63 2.44999H2.37001C1.75974 2.44999 1.26501 1.94071 1.26501 1.31249Z" fill="currentColor"/>
<path fill-rule="evenodd" clip-rule="evenodd" d="M1.26501 6.99999C1.26501 6.37176 1.75974 5.86249 2.37001 5.86249H15.63C16.2403 5.86249 16.735 6.37176 16.735 6.99999C16.735 7.62821 16.2403 8.13749 15.63 8.13749H2.37001C1.75974 8.13749 1.26501 7.62821 1.26501 6.99999Z" fill="currentColor"/>
<path fill-rule="evenodd" clip-rule="evenodd" d="M1.26501 12.6875C1.26501 12.0593 1.75974 11.55 2.37001 11.55H15.63C16.2403 11.55 16.735 12.0593 16.735 12.6875C16.735 13.3157 16.2403 13.825 15.63 13.825H2.37001C1.75974 13.825 1.26501 13.3157 1.26501 12.6875Z" fill="currentColor"/>
</svg>
