<svg width="139" height="35" viewBox="0 0 139 35" fill="none" xmlns="http://www.w3.org/2000/svg">
<path d="M26.5315 20.3647V21.847C26.0395 21.3059 25.4773 20.9059 24.798 20.647C24.142 20.3647 23.4392 20.2235 22.6428 20.2235C21.4715 20.2235 20.3939 20.4823 19.4568 21C18.5432 21.5176 17.817 22.247 17.2782 23.1882C16.7628 24.1059 16.5051 25.2117 16.5051 26.4588C16.5051 27.7059 16.7628 28.7882 17.2782 29.7294C17.817 30.6706 18.5432 31.4 19.4568 31.9176C20.3939 32.4353 21.448 32.6941 22.6428 32.6941C23.4861 32.6941 24.2357 32.5529 24.9151 32.2706C25.6179 31.9882 26.2035 31.5412 26.672 30.9765V32.5529H29.366V20.3882H26.5315V20.3647ZM25.5476 29.2117C24.8682 29.9176 24.0015 30.2706 22.9707 30.2706C21.94 30.2706 21.0732 29.9176 20.3939 29.2117C19.7379 28.5059 19.3865 27.5882 19.3865 26.4588C19.3865 25.3059 19.7145 24.3882 20.3939 23.7059C21.0732 23 21.94 22.6706 22.9707 22.6706C24.0015 22.6706 24.8682 23.0235 25.5476 23.7059C26.2269 24.4117 26.5783 25.3294 26.5783 26.4588C26.5783 27.5882 26.2504 28.5294 25.5476 29.2117ZM40.3294 29.8706C39.8141 30.1529 39.2518 30.2706 38.6193 30.2706C37.5417 30.2706 36.6515 29.9176 35.9722 29.2353C35.2928 28.5294 34.9414 27.6117 34.9414 26.4588C34.9414 25.3059 35.2928 24.3882 35.9956 23.7059C36.6984 23 37.5652 22.6706 38.6193 22.6706C39.2284 22.6706 39.8141 22.8117 40.3294 23.0941C40.8682 23.3765 41.2899 23.7765 41.6413 24.3412L43.8199 23.0706C43.3748 22.1529 42.6955 21.447 41.7818 20.9765C40.8917 20.4823 39.8375 20.247 38.6428 20.247C37.3777 20.247 36.2299 20.5059 35.246 21.047C34.2621 21.5882 33.489 22.3176 32.9268 23.2588C32.3646 24.2 32.0835 25.2823 32.0835 26.4823C32.0835 27.6823 32.3646 28.7647 32.9268 29.7294C33.489 30.6706 34.2621 31.4 35.2694 31.9412C36.2767 32.4823 37.4012 32.7412 38.6428 32.7412C39.8141 32.7412 40.8682 32.5059 41.7584 32.0117C42.672 31.5176 43.3514 30.8117 43.8199 29.8941L41.6413 28.6235C41.2899 29.1412 40.8448 29.5647 40.3294 29.8706ZM65.2548 21.5882C64.3646 20.6941 63.1464 20.247 61.6237 20.247C60.6633 20.247 59.7965 20.4353 59.0234 20.7882C58.2269 21.1412 57.5944 21.6353 57.1025 22.2706C56.7042 21.6117 56.142 21.0941 55.4158 20.7647C54.713 20.4117 53.9165 20.247 53.0029 20.247C52.183 20.247 51.41 20.3882 50.7306 20.6706C50.0512 20.9529 49.489 21.3765 49.0205 21.9176V20.3647H46.3265V32.5294H49.1611V26.3412C49.1611 25.1647 49.4422 24.247 50.0044 23.6353C50.59 23.0235 51.3631 22.6941 52.3236 22.6941C53.2138 22.6941 53.8697 22.9765 54.3382 23.5176C54.8067 24.0588 55.041 24.8588 55.041 25.9176V32.5294H57.8755V26.3412C57.8755 25.1647 58.1567 24.2706 58.7423 23.6588C59.328 23.0235 60.0776 22.6941 61.0381 22.6941C61.9283 22.6941 62.5842 22.9765 63.0527 23.5176C63.5212 24.0588 63.7555 24.8588 63.7555 25.9176V32.5294H66.59V25.5412C66.59 23.8 66.145 22.4588 65.2548 21.5882ZM78.7247 20.3647V26.5294C78.7247 27.7059 78.4202 28.6235 77.8111 29.2588C77.2255 29.8941 76.429 30.2 75.4217 30.2C74.5081 30.2 73.7818 29.9412 73.2899 29.4C72.7979 28.8588 72.5637 28.0353 72.5637 26.9294V20.3647H69.7291V27.3059C69.7291 29.0941 70.1977 30.4353 71.1347 31.3294C72.0717 32.2235 73.3602 32.6706 74.9766 32.6706C75.7731 32.6706 76.4993 32.5294 77.1552 32.247C77.8346 31.9412 78.3968 31.5176 78.8653 30.9765V32.5294H81.5593V20.3647H78.7247ZM87.5798 29.447C87.2284 29.0941 86.7833 28.9294 86.2679 28.9294C85.7526 28.9294 85.284 29.0941 84.9326 29.447C84.5813 29.8 84.4173 30.247 84.4173 30.8117C84.4173 31.3529 84.6047 31.8235 84.9561 32.1765C85.3075 32.5294 85.7526 32.6941 86.2679 32.6941C86.7833 32.6941 87.2284 32.5294 87.5798 32.1765C87.9312 31.8 88.1186 31.3529 88.1186 30.8117C88.1186 30.247 87.9546 29.8 87.5798 29.447Z" fill="white"/>
<path d="M115.105 23.2353C114.567 22.2941 113.794 21.5647 112.81 21.0235C111.826 20.4823 110.701 20.2235 109.483 20.2235C108.265 20.2235 107.141 20.4823 106.157 21.0235C105.173 21.5647 104.4 22.2941 103.837 23.2353C103.299 24.1765 103.018 25.2588 103.018 26.4588C103.018 27.6588 103.299 28.7412 103.837 29.7059C104.4 30.647 105.173 31.3765 106.157 31.9176C107.141 32.4588 108.242 32.7176 109.483 32.7176C110.725 32.7176 111.826 32.4588 112.81 31.9176C113.794 31.3765 114.567 30.647 115.105 29.7059C115.668 28.7412 115.949 27.6588 115.949 26.4588C115.949 25.2588 115.668 24.1765 115.105 23.2353ZM112.06 29.2117C111.381 29.9176 110.514 30.2706 109.483 30.2706C108.429 30.2706 107.586 29.9176 106.906 29.2117C106.25 28.5059 105.899 27.5882 105.899 26.4588C105.899 25.3059 106.227 24.3882 106.906 23.7059C107.586 23 108.452 22.6706 109.483 22.6706C110.537 22.6706 111.381 23.0235 112.06 23.7059C112.739 24.4117 113.091 25.3294 113.091 26.4588C113.091 27.5882 112.763 28.5294 112.06 29.2117ZM137.594 21.5882C136.704 20.6941 135.486 20.247 133.963 20.247C133.003 20.247 132.136 20.4353 131.363 20.7882C130.567 21.1412 129.934 21.6353 129.442 22.2706C129.044 21.6117 128.482 21.0941 127.755 20.7647C127.053 20.4117 126.256 20.247 125.343 20.247C124.523 20.247 123.75 20.3882 123.07 20.6706C122.391 20.9529 121.829 21.3765 121.36 21.9176V20.3647H118.666V32.5294H121.501V26.3412C121.501 25.1647 121.782 24.247 122.344 23.6353C122.93 23.0235 123.703 22.6941 124.663 22.6941C125.553 22.6941 126.209 22.9765 126.678 23.5176C127.146 24.0588 127.381 24.8588 127.381 25.9176V32.5294H130.215V26.3412C130.215 25.1647 130.496 24.2706 131.082 23.6588C131.668 23.0235 132.417 22.6941 133.378 22.6941C134.268 22.6941 134.924 22.9765 135.392 23.5176C135.861 24.0588 136.095 24.8588 136.095 25.9176V32.5294H138.93V25.5412C138.93 23.8 138.485 22.4588 137.594 21.5882Z" fill="white"/>
<path d="M14.6779 26.4117V32.5059H12.0307V26.4117C12.0307 24.5059 10.4846 22.9529 8.61052 22.9529C6.71301 22.9529 5.16689 24.5059 5.16689 26.4117V32.5059H0.950195V29.847H2.54317V26.4117C2.54317 23.047 5.26059 20.3176 8.61052 20.3176C11.9604 20.3176 14.6779 23.047 14.6779 26.4117Z" fill="white"/>
<path d="M13.1347 10.0115C13.1347 13.3762 10.4173 16.1056 7.06735 16.1056H1V13.4468H7.06735C8.96486 13.4468 10.4876 11.8939 10.4876 9.98797C10.4876 8.08209 8.94144 6.55268 7.06735 6.55268H1V2.31738H3.64715V3.91738H7.06735C10.3939 3.91738 13.1347 6.64679 13.1347 10.0115Z" fill="#EA5455"/>
<path d="M91.6559 27.047C91.6559 28.9529 93.202 30.5058 95.0761 30.5058H101.143V34.7411H98.4963V33.1411H95.0527C91.7028 33.1411 88.9854 30.4117 88.9854 27.047C88.9854 23.6823 91.7028 20.9529 95.0527 20.9529H101.12V23.6117H95.0527C93.202 23.5882 91.6559 25.1411 91.6559 27.047Z" fill="white"/>
<path d="M66.1243 0.858398V2.36428H62.751V0.858398H66.1243Z" fill="#EA5455"/>
<path d="M27.2139 3.51776V15.6825H24.5199V14.1295C24.0749 14.6707 23.4892 15.0942 22.8098 15.4001C22.1539 15.6825 21.4277 15.8236 20.6312 15.8236C19.0148 15.8236 17.7264 15.3766 16.7893 14.4825C15.8523 13.5648 15.3838 12.2236 15.3838 10.4354V3.4707H18.2183V10.0354C18.2183 11.1413 18.4526 11.9413 18.9445 12.506C19.4365 13.0472 20.1627 13.306 21.0763 13.306C22.0836 13.306 22.8801 13.0001 23.4658 12.3648C24.0749 11.7295 24.3794 10.8119 24.3794 9.63541V3.4707H27.2139V3.51776Z" fill="#EA5455"/>
<path d="M38.1306 9.35254C38.8802 9.5643 39.4658 9.91724 39.8875 10.4114C40.3092 10.882 40.52 11.4467 40.52 12.129C40.52 12.882 40.2623 13.5408 39.7704 14.1055C39.2784 14.6702 38.5757 15.1172 37.7089 15.4231C36.8421 15.7525 35.8348 15.8937 34.7104 15.8937C33.7733 15.8937 32.8597 15.7761 31.9695 15.5643C31.0793 15.329 30.2594 15.0231 29.5332 14.5996L30.3531 12.482C30.9388 12.8114 31.6181 13.0702 32.3443 13.2584C33.094 13.4467 33.8202 13.5408 34.5698 13.5408C35.5303 13.5408 36.2565 13.3996 36.7953 13.1172C37.3341 12.8114 37.6152 12.4114 37.6152 11.8937C37.6152 11.4231 37.4044 11.0467 36.9827 10.7878C36.5844 10.529 35.9988 10.4114 35.2257 10.4114H32.8597V8.50548H34.9915C35.6943 8.50548 36.2565 8.38783 36.6547 8.12901C37.053 7.89372 37.2638 7.54077 37.2638 7.09371C37.2638 6.64666 37.0295 6.29371 36.5376 6.03489C36.0456 5.77607 35.3897 5.65842 34.5464 5.65842C33.3282 5.65842 32.0632 5.96431 30.7045 6.55254L29.9783 4.45842C31.5713 3.70548 33.1642 3.35254 34.7806 3.35254C35.8114 3.35254 36.725 3.49372 37.5449 3.77607C38.3648 4.05842 38.9973 4.43489 39.4424 4.95254C39.9109 5.44666 40.1452 6.03489 40.1452 6.69371C40.1452 7.28195 39.9578 7.82313 39.6064 8.29372C39.2784 8.74077 38.7631 9.09372 38.1306 9.35254Z" fill="#EA5455"/>
<path d="M52.4204 3.51813V5.00048C51.9284 4.4593 51.3662 4.0593 50.6869 3.80048C50.0309 3.51813 49.3047 3.37695 48.5317 3.37695C47.3604 3.37695 46.2828 3.63577 45.3457 4.15342C44.4321 4.67107 43.7059 5.40048 43.1671 6.34166C42.6517 7.2593 42.394 8.36519 42.394 9.61225C42.394 10.8593 42.6517 11.9652 43.1671 12.9064C43.7059 13.8475 44.4321 14.577 45.3457 15.0946C46.2828 15.6122 47.3369 15.8711 48.5317 15.8711C49.3516 15.8711 50.1246 15.7299 50.804 15.4475C51.5068 15.1652 52.0924 14.7181 52.561 14.1534V15.7299H55.2549V3.54166H52.4204V3.51813ZM51.4599 12.3652C50.7806 13.0711 49.9138 13.424 48.8831 13.424C47.8289 13.424 46.9855 13.0711 46.3062 12.3652C45.6503 11.6593 45.2989 10.7417 45.2989 9.61225C45.2989 8.48284 45.6268 7.54166 46.3062 6.8593C46.9855 6.15342 47.8523 5.80048 48.8831 5.80048C49.9372 5.80048 50.7806 6.15342 51.4599 6.8593C52.1393 7.56519 52.4907 8.48284 52.4907 9.61225C52.4673 10.7417 52.1393 11.6593 51.4599 12.3652Z" fill="#EA5455"/>
<path d="M70.505 3.51776V15.6825H67.811V14.1295C67.3659 14.6707 66.7802 15.0942 66.1009 15.4001C65.4449 15.6825 64.7187 15.8236 63.9222 15.8236C62.3058 15.8236 61.0174 15.3766 60.0804 14.4825C59.1433 13.5648 58.6748 12.2236 58.6748 10.4354V3.4707H61.5094V10.0354C61.5094 11.1413 61.7436 11.9413 62.2356 12.506C62.7275 13.0472 63.4537 13.306 64.3673 13.306C65.3747 13.306 66.1711 13.0001 66.7568 12.3648C67.3659 11.7295 67.6704 10.8119 67.6704 9.63541V3.4707H70.505V3.51776Z" fill="#EA5455"/>
<path d="M74.3472 3.51758H77.1817V8.45875H83.2959V3.51758H86.1305V15.6823H83.2959V10.8823H77.1817V15.6823H74.3472V3.51758Z" fill="#EA5455"/>
</svg>
