<svg width="110" height="28" viewBox="0 0 110 28" fill="none" xmlns="http://www.w3.org/2000/svg">
<path d="M22.6213 15.9955V25.5654H20.4887V24.3289C20.1183 24.7829 19.6583 25.1234 19.1087 25.3504C18.5711 25.5774 17.9737 25.6909 17.3166 25.6909C16.3847 25.6909 15.5484 25.4878 14.8076 25.0816C14.0788 24.6753 13.5054 24.1019 13.0872 23.3611C12.681 22.6204 12.4779 21.7602 12.4779 20.7805C12.4779 19.8008 12.681 18.9465 13.0872 18.2177C13.5054 17.477 14.0788 16.9035 14.8076 16.4973C15.5484 16.0911 16.3847 15.888 17.3166 15.888C17.9379 15.888 18.5054 15.9955 19.0191 16.2105C19.5448 16.4256 19.9988 16.7422 20.3812 17.1604V15.9955H22.6213ZM17.5675 23.7733C18.3919 23.7733 19.0729 23.4985 19.6105 22.9489C20.1482 22.3993 20.417 21.6765 20.417 20.7805C20.417 19.8844 20.1482 19.1616 19.6105 18.612C19.0729 18.0624 18.3919 17.7876 17.5675 17.7876C16.7431 17.7876 16.0621 18.0624 15.5245 18.612C14.9988 19.1616 14.736 19.8844 14.736 20.7805C14.736 21.6765 14.9988 22.3993 15.5245 22.9489C16.0621 23.4985 16.7431 23.7733 17.5675 23.7733ZM29.943 25.6909C28.9513 25.6909 28.0613 25.4818 27.2727 25.0636C26.4842 24.6455 25.8689 24.066 25.4268 23.3253C24.9848 22.5726 24.7637 21.7243 24.7637 20.7805C24.7637 19.8366 24.9848 18.9943 25.4268 18.2536C25.8689 17.5128 26.4782 16.9334 27.2548 16.5152C28.0433 16.097 28.9394 15.888 29.943 15.888C30.8868 15.888 31.7112 16.0791 32.4161 16.4614C33.133 16.8438 33.6706 17.3933 34.029 18.1102L32.3086 19.1138C32.0338 18.6717 31.6873 18.3432 31.2692 18.1281C30.8629 17.9011 30.4149 17.7876 29.9251 17.7876C29.0887 17.7876 28.3958 18.0624 27.8462 18.612C27.2966 19.1496 27.0218 19.8724 27.0218 20.7805C27.0218 21.6885 27.2906 22.4173 27.8283 22.9668C28.3779 23.5045 29.0768 23.7733 29.9251 23.7733C30.4149 23.7733 30.8629 23.6658 31.2692 23.4507C31.6873 23.2237 32.0338 22.8892 32.3086 22.4471L34.029 23.4507C33.6587 24.1676 33.115 24.7231 32.3982 25.1174C31.6933 25.4997 30.8749 25.6909 29.943 25.6909ZM48.0803 15.888C49.287 15.888 50.2428 16.2404 50.9477 16.9453C51.6526 17.6383 52.005 18.6837 52.005 20.0815V25.5654H49.7649V20.3683C49.7649 19.5319 49.5797 18.9047 49.2093 18.4865C48.8389 18.0564 48.3073 17.8414 47.6143 17.8414C46.8616 17.8414 46.2583 18.0923 45.8043 18.5941C45.3503 19.0839 45.1233 19.7888 45.1233 20.7088V25.5654H42.8831V20.3683C42.8831 19.5319 42.6979 18.9047 42.3275 18.4865C41.9572 18.0564 41.4255 17.8414 40.7326 17.8414C39.9679 17.8414 39.3586 18.0863 38.9046 18.5761C38.4625 19.066 38.2415 19.7769 38.2415 20.7088V25.5654H36.0013V15.9955H38.134V17.2141C38.4924 16.784 38.9404 16.4555 39.4781 16.2285C40.0157 16.0015 40.6131 15.888 41.2702 15.888C41.987 15.888 42.6203 16.0253 43.1698 16.3001C43.7314 16.563 44.1734 16.9573 44.496 17.4829C44.8903 16.9811 45.3981 16.5929 46.0193 16.3181C46.6406 16.0313 47.3276 15.888 48.0803 15.888ZM63.8308 15.9955V25.5654H61.6982V24.3468C61.3398 24.7769 60.8917 25.1114 60.3541 25.3504C59.8284 25.5774 59.2549 25.6909 58.6337 25.6909C57.3553 25.6909 56.3457 25.3384 55.605 24.6335C54.8642 23.9167 54.4938 22.8593 54.4938 21.4615V15.9955H56.734V21.1568C56.734 22.017 56.9252 22.6622 57.3075 23.0923C57.7017 23.5105 58.2633 23.7195 58.9921 23.7195C59.7806 23.7195 60.4079 23.4746 60.8738 22.9848C61.3517 22.483 61.5907 21.7661 61.5907 20.8342V15.9955H63.8308ZM67.537 25.6909C67.1308 25.6909 66.7843 25.5535 66.4976 25.2787C66.2108 24.9919 66.0675 24.6335 66.0675 24.2034C66.0675 23.7614 66.2049 23.4029 66.4797 23.1281C66.7664 22.8533 67.1189 22.716 67.537 22.716C67.9552 22.716 68.3017 22.8533 68.5764 23.1281C68.8632 23.4029 69.0066 23.7614 69.0066 24.2034C69.0066 24.6335 68.8632 24.9919 68.5764 25.2787C68.2897 25.5535 67.9432 25.6909 67.537 25.6909Z" fill="#2D4059"/>
<path d="M85.8661 25.6909C84.8984 25.6909 84.0262 25.4818 83.2496 25.0636C82.473 24.6455 81.8637 24.066 81.4216 23.3253C80.9915 22.5726 80.7765 21.7243 80.7765 20.7805C80.7765 19.8366 80.9915 18.9943 81.4216 18.2536C81.8637 17.5128 82.473 16.9334 83.2496 16.5152C84.0262 16.097 84.8984 15.888 85.8661 15.888C86.8458 15.888 87.7239 16.097 88.5005 16.5152C89.2771 16.9334 89.8805 17.5128 90.3106 18.2536C90.7526 18.9943 90.9737 19.8366 90.9737 20.7805C90.9737 21.7243 90.7526 22.5726 90.3106 23.3253C89.8805 24.066 89.2771 24.6455 88.5005 25.0636C87.7239 25.4818 86.8458 25.6909 85.8661 25.6909ZM85.8661 23.7733C86.6905 23.7733 87.3715 23.4985 87.9091 22.9489C88.4468 22.3993 88.7156 21.6765 88.7156 20.7805C88.7156 19.8844 88.4468 19.1616 87.9091 18.612C87.3715 18.0624 86.6905 17.7876 85.8661 17.7876C85.0417 17.7876 84.3607 18.0624 83.8231 18.612C83.2974 19.1616 83.0345 19.8844 83.0345 20.7805C83.0345 21.6765 83.2974 22.3993 83.8231 22.9489C84.3607 23.4985 85.0417 23.7733 85.8661 23.7733ZM105.195 15.888C106.401 15.888 107.357 16.2404 108.062 16.9453C108.767 17.6383 109.119 18.6837 109.119 20.0815V25.5654H106.879V20.3683C106.879 19.5319 106.694 18.9047 106.324 18.4865C105.953 18.0564 105.422 17.8414 104.729 17.8414C103.976 17.8414 103.373 18.0923 102.919 18.5941C102.465 19.0839 102.238 19.7888 102.238 20.7088V25.5654H99.9976V20.3683C99.9976 19.5319 99.8124 18.9047 99.442 18.4865C99.0716 18.0564 98.54 17.8414 97.847 17.8414C97.0824 17.8414 96.4731 18.0863 96.0191 18.5761C95.577 19.066 95.356 19.7769 95.356 20.7088V25.5654H93.1158V15.9955H95.2484V17.2141C95.6069 16.784 96.0549 16.4555 96.5925 16.2285C97.1302 16.0015 97.7275 15.888 98.3847 15.888C99.1015 15.888 99.7347 16.0253 100.284 16.3001C100.846 16.563 101.288 16.9573 101.61 17.4829C102.005 16.9811 102.513 16.5929 103.134 16.3181C103.755 16.0313 104.442 15.888 105.195 15.888Z" fill="#2D4059"/>
<path fill-rule="evenodd" clip-rule="evenodd" d="M3.5129 20.5331L3.5129 25.326H8.93095V20.5331C8.93095 19.037 7.71808 17.8241 6.22192 17.8241C4.72577 17.8241 3.5129 19.037 3.5129 20.5331ZM1.42903 25.326H11.0148V20.5331C11.0148 17.8861 8.86897 15.7402 6.22192 15.7402C3.57488 15.7402 1.42903 17.8861 1.42903 20.5331L1.42903 25.326Z" fill="#2D4059"/>
<path d="M0.178711 23.2422H1.42903V25.326H0.178711V23.2422Z" fill="#2D4059"/>
<path fill-rule="evenodd" clip-rule="evenodd" d="M4.79256 4.94161L-0.000337746 4.94161L-0.000337983 10.3597L4.79256 10.3597C6.28871 10.3597 7.50158 9.14679 7.50158 7.65064C7.50158 6.15448 6.28871 4.94161 4.79256 4.94161ZM-0.000337655 2.85774L-0.000338074 12.4435L4.79256 12.4435C7.4396 12.4435 9.58545 10.2977 9.58545 7.65064C9.58545 5.00359 7.4396 2.85774 4.79256 2.85774L-0.000337655 2.85774Z" fill="#EA5455"/>
<path d="M2.08353 1.60742L2.08353 2.85774L-0.000337655 2.85774L-0.000337601 1.60742L2.08353 1.60742Z" fill="#EA5455"/>
<path d="M51.2405 0.438477L51.2405 1.62475L48.5714 1.62475L48.5714 0.438476L51.2405 0.438477Z" fill="#EA5455"/>
<path fill-rule="evenodd" clip-rule="evenodd" d="M74.4997 23.7342L79.2926 23.7342L79.2926 18.3161L74.4997 18.3161C73.0035 18.3161 71.7907 19.529 71.7907 21.0251C71.7907 22.5213 73.0035 23.7342 74.4997 23.7342ZM79.2926 25.818L79.2926 16.2323L74.4997 16.2323C71.8526 16.2323 69.7068 18.3781 69.7068 21.0251C69.7068 23.6722 71.8526 25.818 74.4997 25.818L79.2926 25.818Z" fill="#2D4059"/>
<path d="M77.2087 27.0684L77.2087 25.818L79.2926 25.818L79.2926 27.0684L77.2087 27.0684Z" fill="#2D4059"/>
<path d="M20.7105 2.52716V12.0971H18.5779V10.8785C18.2195 11.3086 17.7714 11.6431 17.2338 11.8821C16.7081 12.1091 16.1346 12.2226 15.5133 12.2226C14.235 12.2226 13.2254 11.8701 12.4847 11.1652C11.7439 10.4484 11.3735 9.391 11.3735 7.99314V2.52716H13.6137V7.68848C13.6137 8.5487 13.8049 9.19387 14.1872 9.62398C14.5814 10.0421 15.143 10.2512 15.8718 10.2512C16.6603 10.2512 17.2875 10.0063 17.7535 9.51645C18.2314 9.01465 18.4704 8.2978 18.4704 7.3659V2.52716H20.7105Z" fill="#EA5455"/>
<path d="M29.3301 7.115C29.9275 7.28227 30.3874 7.55706 30.71 7.93938C31.0445 8.30975 31.2118 8.75778 31.2118 9.28347C31.2118 9.8689 31.0147 10.3886 30.6204 10.8426C30.2261 11.2847 29.6825 11.6312 28.9896 11.8821C28.2966 12.133 27.5081 12.2584 26.624 12.2584C25.8832 12.2584 25.1604 12.1748 24.4555 12.0075C23.7506 11.8283 23.1114 11.5774 22.5379 11.2548L23.1831 9.58813C23.649 9.85098 24.1747 10.0541 24.7602 10.1975C25.3456 10.3408 25.931 10.4125 26.5164 10.4125C27.2691 10.4125 27.8546 10.299 28.2727 10.072C28.7028 9.83306 28.9179 9.51048 28.9179 9.10426C28.9179 8.73389 28.7506 8.44715 28.4161 8.24404C28.0935 8.04093 27.6335 7.93938 27.0362 7.93938H25.1723V6.43399H26.8569C27.4185 6.43399 27.8546 6.33841 28.1652 6.14725C28.4878 5.95609 28.6491 5.68727 28.6491 5.3408C28.6491 4.99432 28.4579 4.71953 28.0756 4.51642C27.6933 4.31331 27.1676 4.21176 26.4985 4.21176C25.5427 4.21176 24.5332 4.44473 23.4698 4.91069L22.8963 3.26193C24.1508 2.6765 25.4173 2.38379 26.6956 2.38379C27.5081 2.38379 28.2369 2.49729 28.882 2.72429C29.5272 2.93935 30.029 3.24998 30.3874 3.6562C30.7578 4.05047 30.943 4.50447 30.943 5.01821C30.943 5.48417 30.7996 5.90233 30.5129 6.2727C30.2261 6.63113 29.8319 6.91189 29.3301 7.115Z" fill="#EA5455"/>
<path d="M42.8554 2.52716V12.0971H40.7228V10.8605C40.3524 11.3145 39.8925 11.6551 39.3429 11.8821C38.8052 12.1091 38.2079 12.2226 37.5508 12.2226C36.6188 12.2226 35.7825 12.0195 35.0418 11.6132C34.313 11.207 33.7395 10.6335 33.3213 9.8928C32.9151 9.15205 32.712 8.29183 32.712 7.31213C32.712 6.33244 32.9151 5.47819 33.3213 4.7494C33.7395 4.00865 34.313 3.43517 35.0418 3.02896C35.7825 2.62274 36.6188 2.41963 37.5508 2.41963C38.172 2.41963 38.7395 2.52716 39.2533 2.74222C39.779 2.95727 40.233 3.27388 40.6153 3.69204V2.52716H42.8554ZM37.8016 10.305C38.626 10.305 39.307 10.0302 39.8447 9.48061C40.3823 8.93102 40.6511 8.2082 40.6511 7.31213C40.6511 6.41607 40.3823 5.69325 39.8447 5.14366C39.307 4.59408 38.626 4.31929 37.8016 4.31929C36.9773 4.31929 36.2963 4.59408 35.7586 5.14366C35.2329 5.69325 34.9701 6.41607 34.9701 7.31213C34.9701 8.2082 35.2329 8.93102 35.7586 9.48061C36.2963 10.0302 36.9773 10.305 37.8016 10.305Z" fill="#EA5455"/>
<path d="M54.8904 2.52716V12.0971H52.7578V10.8785C52.3993 11.3086 51.9513 11.6431 51.4137 11.8821C50.888 12.1091 50.3145 12.2226 49.6932 12.2226C48.4149 12.2226 47.4053 11.8701 46.6645 11.1652C45.9238 10.4484 45.5534 9.391 45.5534 7.99314V2.52716H47.7936V7.68848C47.7936 8.5487 47.9847 9.19387 48.3671 9.62398C48.7613 10.0421 49.3229 10.2512 50.0517 10.2512C50.8402 10.2512 51.4674 10.0063 51.9334 9.51645C52.4113 9.01465 52.6502 8.2978 52.6502 7.3659V2.52716H54.8904Z" fill="#EA5455"/>
<path d="M57.9156 2.52716H60.1558V6.41607H64.9766V2.52716H67.2167V12.0971H64.9766V8.31573H60.1558V12.0971H57.9156V2.52716Z" fill="#EA5455"/>
</svg>
