<svg width="130" height="52" viewBox="0 0 130 52" fill="none" xmlns="http://www.w3.org/2000/svg">

<path d="M37.7057 5.37209L35.4978 3.15444C31.4246 -0.936735 24.8199 -0.936735 20.7467 3.15444L12.6384 11.2986L15.5886 14.2618L23.6969 6.11768C26.1332 3.67062 30.1113 3.67062 32.5476 6.11768L34.7555 8.33532C37.1918 10.7824 37.1918 14.7589 34.7555 17.225L26.6472 25.3691L29.5974 28.3324L37.7057 20.1883C41.7789 16.0971 41.7789 9.46326 37.7057 5.37209Z" fill="#EA5455"/>
<path d="M30.3205 32.0221L27.3893 34.9853L25.1814 32.7677L20.0233 37.9486C15.9501 42.0397 9.34541 42.0397 5.2722 37.9486L3.04526 35.7309C-1.02795 31.6397 -1.02795 25.0059 3.04526 20.9147L11.1536 12.7706L14.1038 15.7339L5.99548 23.878C3.55917 26.325 3.55917 30.3015 5.99548 32.7677L8.22242 34.9853C10.6587 37.4324 14.6177 37.4324 17.0731 34.9853L25.1814 26.8412L30.3205 32.0221Z" fill="#2D4059"/>
<path d="M38.6193 40.1088V41.3133C38.2196 40.8736 37.7628 40.5486 37.2108 40.3383C36.6779 40.1088 36.1069 39.9941 35.4597 39.9941C34.508 39.9941 33.6325 40.2044 32.8711 40.625C32.1288 41.0456 31.5388 41.6383 31.101 42.403C30.6823 43.1486 30.4729 44.0471 30.4729 45.0603C30.4729 46.0736 30.6823 46.953 31.101 47.7177C31.5388 48.4824 32.1288 49.075 32.8711 49.4956C33.6325 49.9162 34.489 50.1265 35.4597 50.1265C36.1449 50.1265 36.754 50.0118 37.306 49.7824C37.877 49.553 38.3528 49.1897 38.7335 48.7309V50.0118H40.9224V40.128H38.6193V40.1088ZM37.8199 47.2971C37.2679 47.8706 36.5637 48.1574 35.7262 48.1574C34.8887 48.1574 34.1845 47.8706 33.6325 47.2971C33.0995 46.7236 32.814 45.978 32.814 45.0603C32.814 44.1236 33.0805 43.378 33.6325 42.8236C34.1845 42.25 34.8887 41.9824 35.7262 41.9824C36.5637 41.9824 37.2679 42.2691 37.8199 42.8236C38.3719 43.3971 38.6574 44.1427 38.6574 45.0603C38.6574 45.978 38.3909 46.7427 37.8199 47.2971ZM49.8301 47.8324C49.4114 48.0618 48.9546 48.1574 48.4407 48.1574C47.5651 48.1574 46.8419 47.8706 46.2899 47.3162C45.7379 46.7427 45.4524 45.9971 45.4524 45.0603C45.4524 44.1236 45.7379 43.378 46.3089 42.8236C46.8799 42.25 47.5842 41.9824 48.4407 41.9824C48.9356 41.9824 49.4114 42.0971 49.8301 42.3265C50.2679 42.5559 50.6105 42.8809 50.896 43.3397L52.6662 42.3074C52.3045 41.5618 51.7525 40.9883 51.0102 40.6059C50.287 40.2044 49.4304 40.0133 48.4597 40.0133C47.4319 40.0133 46.4993 40.2236 45.6998 40.6633C44.9004 41.103 44.2723 41.6956 43.8155 42.4603C43.3587 43.225 43.1303 44.1044 43.1303 45.0794C43.1303 46.0544 43.3587 46.9338 43.8155 47.7177C44.2723 48.4824 44.9004 49.075 45.7189 49.5147C46.5373 49.9544 47.4509 50.1647 48.4597 50.1647C49.4114 50.1647 50.2679 49.9736 50.9912 49.5721C51.7335 49.1706 52.2855 48.5971 52.6662 47.8515L50.896 46.8191C50.6105 47.2397 50.2489 47.5838 49.8301 47.8324ZM70.082 41.103C69.3587 40.3765 68.3689 40.0133 67.1318 40.0133C66.3514 40.0133 65.6471 40.1662 65.019 40.453C64.3719 40.7397 63.858 41.1412 63.4583 41.6574C63.1347 41.1221 62.6779 40.7015 62.0878 40.4338C61.5168 40.1471 60.8697 40.0133 60.1274 40.0133C59.4612 40.0133 58.8331 40.128 58.2811 40.3574C57.7291 40.5868 57.2723 40.9309 56.8916 41.3706V40.1088H54.7028V49.9927H57.0058V44.9647C57.0058 44.0088 57.2342 43.2633 57.6911 42.7662C58.1669 42.2691 58.795 42.0015 59.5754 42.0015C60.2987 42.0015 60.8316 42.2309 61.2123 42.6706C61.593 43.1103 61.7833 43.7603 61.7833 44.6206V49.9927H64.0864V44.9647C64.0864 44.0088 64.3148 43.2824 64.7906 42.7853C65.2665 42.2691 65.8755 42.0015 66.6559 42.0015C67.3792 42.0015 67.9121 42.2309 68.2928 42.6706C68.6735 43.1103 68.8638 43.7603 68.8638 44.6206V49.9927H71.1669V44.3147C71.1669 42.9 70.8053 41.8103 70.082 41.103ZM81.0263 40.1088V45.1177C81.0263 46.0736 80.7789 46.8191 80.284 47.3353C79.8082 47.8515 79.161 48.1 78.3426 48.1C77.6003 48.1 77.0102 47.8897 76.6105 47.45C76.2108 47.0103 76.0205 46.3412 76.0205 45.4427V40.1088H73.7174V45.7486C73.7174 47.2015 74.0981 48.2912 74.8594 49.0177C75.6208 49.7441 76.6676 50.1074 77.981 50.1074C78.6281 50.1074 79.2181 49.9927 79.7511 49.7633C80.3031 49.5147 80.7599 49.1706 81.1405 48.7309V49.9927H83.3294V40.1088H81.0263V40.1088ZM88.2211 47.4883C87.9356 47.2015 87.5739 47.0677 87.1552 47.0677C86.7364 47.0677 86.3558 47.2015 86.0703 47.4883C85.7848 47.775 85.6515 48.1383 85.6515 48.5971C85.6515 49.0368 85.8038 49.4191 86.0893 49.7059C86.3748 49.9927 86.7364 50.1265 87.1552 50.1265C87.5739 50.1265 87.9356 49.9927 88.2211 49.7059C88.5066 49.4 88.6588 49.0368 88.6588 48.5971C88.6588 48.1383 88.5256 47.775 88.2211 47.4883Z" fill="#2D4059"/>
<path d="M110.586 42.4412C110.148 41.6765 109.52 41.0838 108.72 40.6441C107.921 40.2044 107.007 39.9941 106.018 39.9941C105.028 39.9941 104.114 40.2044 103.315 40.6441C102.515 41.0838 101.887 41.6765 101.43 42.4412C100.993 43.2059 100.764 44.0853 100.764 45.0603C100.764 46.0353 100.993 46.9147 101.43 47.6986C101.887 48.4633 102.515 49.0559 103.315 49.4956C104.114 49.9353 105.009 50.1456 106.018 50.1456C107.026 50.1456 107.921 49.9353 108.72 49.4956C109.52 49.0559 110.148 48.4633 110.586 47.6986C111.042 46.9147 111.271 46.0353 111.271 45.0603C111.271 44.0853 111.042 43.2059 110.586 42.4412ZM108.111 47.2971C107.559 47.8706 106.855 48.1574 106.018 48.1574C105.161 48.1574 104.476 47.8706 103.924 47.2971C103.391 46.7236 103.105 45.978 103.105 45.0603C103.105 44.1236 103.372 43.378 103.924 42.8236C104.476 42.25 105.18 41.9824 106.018 41.9824C106.874 41.9824 107.559 42.2691 108.111 42.8236C108.663 43.3971 108.949 44.1427 108.949 45.0603C108.949 45.978 108.682 46.7427 108.111 47.2971ZM128.858 41.103C128.135 40.3765 127.145 40.0133 125.908 40.0133C125.127 40.0133 124.423 40.1662 123.795 40.453C123.148 40.7397 122.634 41.1412 122.234 41.6574C121.911 41.1221 121.454 40.7015 120.864 40.4338C120.293 40.1471 119.646 40.0133 118.903 40.0133C118.237 40.0133 117.609 40.128 117.057 40.3574C116.505 40.5868 116.048 40.9309 115.668 41.3706V40.1088H113.479V49.9927H115.782V44.9647C115.782 44.0088 116.01 43.2633 116.467 42.7662C116.943 42.2691 117.571 42.0015 118.351 42.0015C119.075 42.0015 119.608 42.2309 119.988 42.6706C120.369 43.1103 120.559 43.7603 120.559 44.6206V49.9927H122.862V44.9647C122.862 44.0088 123.091 43.2824 123.567 42.7853C124.042 42.2691 124.652 42.0015 125.432 42.0015C126.155 42.0015 126.688 42.2309 127.069 42.6706C127.449 43.1103 127.64 43.7603 127.64 44.6206V49.9927H129.943V44.3147C129.943 42.9 129.581 41.8103 128.858 41.103Z" fill="#2D4059"/>
<path d="M28.9883 45.022V49.9735H26.8375V45.022C26.8375 43.4735 25.5812 42.2117 24.0585 42.2117C22.5168 42.2117 21.2606 43.4735 21.2606 45.022V49.9735H17.8345V47.8132H19.1288V45.022C19.1288 42.2882 21.3367 40.0706 24.0585 40.0706C26.7804 40.0706 28.9883 42.2882 28.9883 45.022Z" fill="#2D4059"/>
<path d="M46.3851 31.697C46.3851 34.4308 44.1772 36.6485 41.4554 36.6485H36.5256V34.4882H41.4554C42.9971 34.4882 44.2343 33.2264 44.2343 31.6779C44.2343 30.1294 42.9781 28.8867 41.4554 28.8867H36.5256V25.4456H38.6764V26.7456H41.4554C44.1581 26.7456 46.3851 28.9632 46.3851 31.697Z" fill="#EA5455"/>
<path d="M91.5329 45.5383C91.5329 47.0868 92.7892 48.3486 94.3119 48.3486H99.2416V51.7897H97.0908V50.4897H94.2928C91.571 50.4897 89.3631 48.2721 89.3631 45.5383C89.3631 42.8044 91.571 40.5868 94.2928 40.5868H99.2225V42.7471H94.2928C92.7892 42.728 91.5329 43.9897 91.5329 45.5383Z" fill="#2D4059"/>
<path d="M89.4392 24.2603V25.4838H86.6984V24.2603H89.4392Z" fill="#EA5455"/>
<path d="M57.8243 26.4206V36.3044H55.6354V35.0426C55.2738 35.4823 54.7979 35.8264 54.246 36.075C53.713 36.3044 53.123 36.4191 52.4758 36.4191C51.1625 36.4191 50.1156 36.0559 49.3543 35.3294C48.593 34.5838 48.2123 33.4941 48.2123 32.0411V26.3823H50.5154V31.7161C50.5154 32.6147 50.7057 33.2647 51.1054 33.7235C51.5051 34.1632 52.0952 34.3735 52.8375 34.3735C53.6559 34.3735 54.3031 34.125 54.7789 33.6088C55.2738 33.0926 55.5212 32.347 55.5212 31.3911V26.3823H57.8243V26.4206Z" fill="#EA5455"/>
<path d="M66.694 31.1617C67.3031 31.3338 67.7789 31.6206 68.1215 32.022C68.4641 32.4044 68.6354 32.8632 68.6354 33.4176C68.6354 34.0294 68.426 34.5647 68.0263 35.0235C67.6266 35.4823 67.0556 35.8456 66.3514 36.0941C65.6471 36.3617 64.8287 36.4764 63.9151 36.4764C63.1537 36.4764 62.4114 36.3809 61.6881 36.2088C60.9648 36.0176 60.2987 35.7691 59.7086 35.425L60.3748 33.7044C60.8506 33.972 61.4026 34.1823 61.9927 34.3353C62.6017 34.4882 63.1918 34.5647 63.8009 34.5647C64.5812 34.5647 65.1713 34.45 65.6091 34.2206C66.0468 33.972 66.2752 33.647 66.2752 33.2264C66.2752 32.8441 66.1039 32.5382 65.7613 32.3279C65.4378 32.1176 64.9619 32.022 64.3338 32.022H62.4114V30.4735H64.1435C64.7145 30.4735 65.1713 30.3779 65.4949 30.1676C65.8184 29.9764 65.9897 29.6897 65.9897 29.3264C65.9897 28.9632 65.7994 28.6764 65.3997 28.4662C65 28.2559 64.467 28.1603 63.7818 28.1603C62.7921 28.1603 61.7643 28.4088 60.6603 28.8867L60.0703 27.1853C61.3645 26.5735 62.6588 26.2867 63.9722 26.2867C64.8096 26.2867 65.552 26.4014 66.2181 26.6309C66.8843 26.8603 67.3982 27.1662 67.7599 27.5867C68.1405 27.9882 68.3309 28.4662 68.3309 29.0014C68.3309 29.4794 68.1786 29.9191 67.8931 30.3014C67.6266 30.6647 67.2079 30.9514 66.694 31.1617Z" fill="#EA5455"/>
<path d="M78.3046 26.4206V27.625C77.9048 27.1853 77.448 26.8603 76.8961 26.65C76.3631 26.4206 75.7731 26.3059 75.145 26.3059C74.1933 26.3059 73.3177 26.5162 72.5564 26.9368C71.8141 27.3574 71.224 27.95 70.7863 28.7147C70.3675 29.4603 70.1581 30.3588 70.1581 31.3721C70.1581 32.3853 70.3675 33.2838 70.7863 34.0486C71.224 34.8133 71.8141 35.4059 72.5564 35.8265C73.3177 36.2471 74.1742 36.4574 75.145 36.4574C75.8111 36.4574 76.4393 36.3427 76.9912 36.1133C77.5622 35.8838 78.0381 35.5206 78.4188 35.0618V36.3427H80.6076V26.4397H78.3046V26.4206ZM77.5242 33.6088C76.9722 34.1824 76.2679 34.4691 75.4305 34.4691C74.574 34.4691 73.8887 34.1824 73.3368 33.6088C72.8038 33.0353 72.5183 32.2897 72.5183 31.3721C72.5183 30.4544 72.7848 29.6897 73.3368 29.1353C73.8887 28.5618 74.593 28.275 75.4305 28.275C76.287 28.275 76.9722 28.5618 77.5242 29.1353C78.0761 29.7088 78.3617 30.4544 78.3617 31.3721C78.3426 32.2897 78.0761 33.0353 77.5242 33.6088Z" fill="#EA5455"/>
<path d="M92.9985 26.4206V36.3044H90.8097V35.0426C90.448 35.4823 89.9722 35.8264 89.4202 36.075C88.8873 36.3044 88.2972 36.4191 87.6501 36.4191C86.3368 36.4191 85.2899 36.0559 84.5286 35.3294C83.7672 34.5838 83.3865 33.4941 83.3865 32.0411V26.3823H85.6896V31.7161C85.6896 32.6147 85.8799 33.2647 86.2797 33.7235C86.6794 34.1632 87.2694 34.3735 88.0117 34.3735C88.8302 34.3735 89.4773 34.125 89.9532 33.6088C90.448 33.0926 90.6955 32.347 90.6955 31.3911V26.3823H92.9985V26.4206Z" fill="#EA5455"/>
<path d="M96.1201 26.4205H98.4231V30.4352H103.391V26.4205H105.694V36.3044H103.391V32.4044H98.4231V36.3044H96.1201V26.4205Z" fill="#EA5455"/>


</svg>
